<svg height="300pt" preserveAspectRatio="xMidYMid meet" viewBox="0 0 300 300" width="300pt" xmlns="http://www.w3.org/2000/svg"><g fill="#1377aa" transform="matrix(.1 0 0 -.1 0 300)"><path d="m1325 2709c-782-70-1339-602-1240-1184 49-286 220-527 505-710 355-228 840-310 1300-219l85 17 341-162c188-88 344-161 347-161s-2 24-12 53c-66 192-83 408-42 539 21 65 31 82 139 230 196 268 225 606 77 898-178 352-598 618-1080 685-141 19-303 25-420 14zm237-420c177-38 301-182 315-366l6-74-78 3-78 3-13 63c-25 120-93 198-195 222-154 37-304-73-328-239l-6-46h-80-79l2 50c9 146 90 282 207 343 92 48 220 64 327 41zm385-497c28-18 33-70 33-347 0-263-1-284-19-306l-19-24-484-3c-454-2-485-1-500 15-14 15-17 63-23 308-8 309-4 338 37 355 28 11 958 13 975 2z"/><path d="m1424 1590c-28-11-64-58-64-82 0-27 18-59 46-83l23-20-29-68c-17-38-30-71-30-73s38-4 85-4 85 3 85 7-12 38-27 75l-26 68 26 20c55 43 40 136-24 159-37 13-37 13-65 1z"/></g></svg>